<?xml version="1.0" encoding="UTF-8" standalone="no"?>
<!-- Created with Inkscape (http://www.inkscape.org/) -->

<svg
   width="48"
   height="48"
   viewBox="0 0 16 16"
   version="1.1"
   id="svg1"
   xml:space="preserve"
   xmlns:xlink="http://www.w3.org/1999/xlink"
   xmlns="http://www.w3.org/2000/svg"
   xmlns:svg="http://www.w3.org/2000/svg"><defs
     id="defs1"><clipPath
       clipPathUnits="userSpaceOnUse"
       id="clipPath2"><use
         x="0"
         y="0"
         xlink:href="#g1"
         id="use2" /></clipPath><clipPath
       clipPathUnits="userSpaceOnUse"
       id="clipPath4"><use
         x="0"
         y="0"
         xlink:href="#g3"
         id="use4" /></clipPath><clipPath
       clipPathUnits="userSpaceOnUse"
       id="clipPath6"><use
         x="0"
         y="0"
         xlink:href="#g5"
         id="use6" /></clipPath></defs><g
     id="layer1"
     transform="matrix(1.2855983,0,0,1.2855983,-2.2898531,-2.5832397)"><g
       id="g2"
       clip-path="url(#clipPath2)"
       transform="translate(0,-1.3333333)"
       style="fill:#ff6600"><g
         id="g1"
         style="fill:#ff6600"><path
           id="rect2"
           style="fill:#ff6600;stroke-width:0.333333"
           d="m 4.4156415,5.0064468 h 7.1393595 c 1.337247,0 2.413803,1.076556 2.413803,2.4138027 v 0.1549577 c 0,1.3372467 -1.076556,2.4138027 -2.413803,2.4138027 0,0 -1.7981782,0.3262651 -2.5985994,-0.00484 C 8.5405308,9.8121387 8.4490299,9.039069 7.9990352,9.032152 7.5284651,9.0249188 7.4057815,9.824314 6.9677692,9.9964588 6.1760091,10.307631 4.4156415,9.9890099 4.4156415,9.9890099 3.0784006,9.9851069 2.0018389,8.9124539 2.0018389,7.5752072 V 7.4202495 c 0,-1.3372467 1.076556,-2.4138027 2.4138026,-2.4138027 z" /></g></g><g
       id="g4"
       clip-path="url(#clipPath4)"
       transform="translate(0,-1.3333333)"><g
         id="g3"><rect
           style="fill:#ffffff;stroke-width:0.333333"
           id="rect5"
           width="6.9341435"
           height="0.53942055"
           x="4.4558482"
           y="5.7172303"
           ry="0.26971027" /></g></g><path
       style="fill:#ff6600;stroke-width:0.333333"
       d="m 4.9702191,11.269307 c 0,0 1.5608983,2.113514 2.6927141,2.072139 1.5364136,-0.05617 3.4401558,-3.072265 3.4401558,-3.072265 0,0 -2.4778704,1.459022 -3.8626791,1.557827 -0.7772542,0.05546 -2.2701908,-0.557701 -2.2701908,-0.557701 z"
       id="path5" /><g
       id="g6"
       clip-path="url(#clipPath6)"><g
         id="g5" /></g></g></svg>
